<svg enable-background="new 0 0 497.072 497.072" viewBox="0 0 497.072 497.072" xmlns="http://www.w3.org/2000/svg">
  <path d="M497 8v52l-60 31 30-90 22-1c5 0 8 3 8 8z" fill="#db3916"/>
  <path d="M467 1v60L60 497H8c-5 0-8-4-8-8C4 228 209 16 467 1z" fill="#fc5a37"/>
  <path d="M497 60v60l-60 31 30-90 30-1z" fill="#fe843f"/>
  <path d="M467 61v60L120 497H60C60 266 240 76 467 61z" fill="#ffae46"/>
  <path d="M497 120v60l-60 31 30-90 30-1z" fill="#ffc85f"/>
  <path d="M467 121v60S180 504 180 497h-60c0-198 153-361 347-376z" fill="#ffe278"/>
  <path d="M497 180v60L324 369l143-188 30-1z" fill="#2fa157"/>
  <path d="M467 181v61L324 369l-84 128h-60c0-165 126-300 287-316z" fill="#47bf70"/>
  <path d="M497 240v60l-75 52 45-110 30-2z" fill="#12b5ff"/>
  <path d="M467 242v60L300 497h-60c0-132 99-240 227-255z" fill="#48d9ff"/>
  <path d="M497 300v53c0 4-3 7-7 7l-23 3-30-30 30-31 30-2z" fill="#487ed2"/>
  <path d="M467 302v61c-59 13-104 65-107 127 0 4-3 7-7 7h-53c0-98 73-180 167-195z" fill="#73a7e6"/>
</svg>
